<svg width="32" height="32" viewBox="0 0 32 32" fill="none" xmlns="http://www.w3.org/2000/svg">
<path fill-rule="evenodd" clip-rule="evenodd" d="M16 13.3333C18.9455 13.3333 21.3333 10.9455 21.3333 7.99999C21.3333 5.05447 18.9455 2.66666 16 2.66666C13.0544 2.66666 10.6666 5.05447 10.6666 7.99999C10.6666 10.9455 13.0544 13.3333 16 13.3333ZM16 10.6667C17.4727 10.6667 18.6666 9.47275 18.6666 7.99999C18.6666 6.52723 17.4727 5.33332 16 5.33332C14.5272 5.33332 13.3333 6.52723 13.3333 7.99999C13.3333 9.47275 14.5272 10.6667 16 10.6667Z" fill="white"/>
<path d="M5.80054 20.5798C7.60697 17.9427 10.8277 16 16.0005 16C17.6356 16 19.0821 16.1931 20.357 16.5476C21.0664 16.745 21.4816 17.48 21.2843 18.1895C21.087 18.8989 20.3519 19.3141 19.6424 19.1168C18.6292 18.835 17.4262 18.6667 16.0005 18.6667C11.5734 18.6667 9.23857 20.2795 8.00055 22.0868C7.00349 23.5424 6.63061 25.2527 6.60041 26.6667H18.6664C19.4027 26.6667 19.9997 27.2636 19.9997 28C19.9997 28.7364 19.4027 29.3333 18.6664 29.3333H5.33388C4.66145 29.3333 4.09425 28.8326 4.01084 28.1654C3.75923 26.1525 4.04955 23.136 5.80054 20.5798Z" fill="white"/>
<path d="M25.3333 29.3333C24.5969 29.3333 24 28.7364 24 28V25.3333H21.3333C20.5969 25.3333 20 24.7364 20 24C20 23.2636 20.5969 22.6667 21.3333 22.6667H24V20C24 19.2636 24.5969 18.6667 25.3333 18.6667C26.0697 18.6667 26.6666 19.2636 26.6666 20V22.6667H29.3333C30.0697 22.6667 30.6666 23.2636 30.6666 24C30.6666 24.7364 30.0697 25.3333 29.3333 25.3333H26.6666V28C26.6666 28.7364 26.0697 29.3333 25.3333 29.3333Z" fill="white"/>
</svg>
