<svg width="32" height="32" viewBox="0 0 32 32" fill="none" xmlns="http://www.w3.org/2000/svg">
<path fill-rule="evenodd" clip-rule="evenodd" d="M2.66663 6.66666C2.66663 4.45752 4.45749 2.66666 6.66663 2.66666H25.3333C27.5424 2.66666 29.3333 4.45752 29.3333 6.66666V20.6868C29.3333 22.5166 27.8499 24 26.0201 24C25.5976 24 25.2887 24.3985 25.3939 24.8076L25.4755 25.1251C26.3314 28.4537 22.448 30.9487 19.7763 28.7866L14.2282 24.2969C13.9909 24.1048 13.6948 24 13.3895 24H6.66663C4.45749 24 2.66663 22.2091 2.66663 20V6.66666ZM6.66663 5.33332C5.93025 5.33332 5.33329 5.93028 5.33329 6.66666V20C5.33329 20.7364 5.93025 21.3333 6.66663 21.3333H13.3895C14.3055 21.3333 15.1937 21.6477 15.9057 22.2239L21.4538 26.7137C22.1284 27.2596 23.109 26.6297 22.8929 25.7892L22.8112 25.4717C22.2721 23.3752 23.8554 21.3333 26.0201 21.3333C26.3771 21.3333 26.6666 21.0438 26.6666 20.6868V6.66666C26.6666 5.93028 26.0697 5.33332 25.3333 5.33332H6.66663Z" fill="white"/>
<path d="M7.99996 9.33332C7.99996 8.59694 8.59691 7.99999 9.33329 7.99999H22.6666C23.403 7.99999 24 8.59694 24 9.33332C24 10.0697 23.403 10.6667 22.6666 10.6667H9.33329C8.59691 10.6667 7.99996 10.0697 7.99996 9.33332Z" fill="white"/>
<path d="M7.99996 14.6667C7.99996 13.9303 8.59691 13.3333 9.33329 13.3333H17.3333C18.0697 13.3333 18.6666 13.9303 18.6666 14.6667C18.6666 15.403 18.0697 16 17.3333 16H9.33329C8.59691 16 7.99996 15.403 7.99996 14.6667Z" fill="white"/>
</svg>
