<svg width="32" height="32" viewBox="0 0 32 32" fill="none" xmlns="http://www.w3.org/2000/svg">
<path d="M24.4841 24.4853C25.0048 23.9646 25.0048 23.1204 24.4841 22.5997L17.8854 16.0009L24.486 9.40035C25.0066 8.87966 25.0066 8.03543 24.4859 7.51473C23.9653 6.99404 23.121 6.99403 22.6003 7.51473L15.9998 14.1153L9.39919 7.51473C8.87849 6.99403 8.03427 6.99403 7.51357 7.51473C6.99287 8.03543 6.99287 8.87965 7.51357 9.40035L14.1141 16.0009L7.51538 22.5997C6.99468 23.1204 6.99468 23.9646 7.51538 24.4853C8.03608 25.006 8.8803 25.006 9.401 24.4853L15.9998 17.8865L22.5985 24.4853C23.1192 25.006 23.9634 25.006 24.4841 24.4853Z" fill="#F4F4F5"/>
</svg>
