<svg width="12" height="12" viewBox="0 0 12 12" fill="none" xmlns="http://www.w3.org/2000/svg">
<path d="M6.66675 1.33335C6.66675 0.965164 6.36827 0.666687 6.00008 0.666687C5.63189 0.666687 5.33341 0.965164 5.33341 1.33335V5.33335H1.33341C0.965225 5.33335 0.666748 5.63183 0.666748 6.00002C0.666748 6.36821 0.965225 6.66669 1.33341 6.66669H5.33341V10.6667C5.33341 11.0349 5.63189 11.3334 6.00008 11.3334C6.36827 11.3334 6.66675 11.0349 6.66675 10.6667V6.66669H10.6667C11.0349 6.66669 11.3334 6.36821 11.3334 6.00002C11.3334 5.63183 11.0349 5.33335 10.6667 5.33335H6.66675V1.33335Z" fill="#F4F4F5"/>
</svg>
