<svg width="16" height="16" viewBox="0 0 16 16" fill="none" xmlns="http://www.w3.org/2000/svg">
<path fill-rule="evenodd" clip-rule="evenodd" d="M2 4C2 2.89543 2.89543 2 4 2H4.66667C5.03486 2 5.33333 2.29848 5.33333 2.66667C5.33333 3.03486 5.03486 3.33333 4.66667 3.33333H4C3.63181 3.33333 3.33333 3.63181 3.33333 4V12C3.33333 12.3682 3.63181 12.6667 4 12.6667H12C12.3682 12.6667 12.6667 12.3682 12.6667 12V11.3333C12.6667 10.9651 12.9651 10.6667 13.3333 10.6667C13.7015 10.6667 14 10.9651 14 11.3333V12C14 13.1046 13.1046 14 12 14H4C2.89543 14 2 13.1046 2 12V4Z" fill="#FFFFFF"/>
<path fill-rule="evenodd" clip-rule="evenodd" d="M8.66677 3.33333C8.29858 3.33333 8.0001 3.03486 8.0001 2.66667C8.0001 2.29848 8.29858 2 8.66677 2H13.3808C13.749 2 14.0475 2.29848 14.0475 2.66667L14.0475 7.38071C14.0475 7.7489 13.749 8.04738 13.3808 8.04738C13.0126 8.04738 12.7141 7.7489 12.7141 7.38071L12.7141 4.22876L7.80474 9.13817C7.54439 9.39852 7.12228 9.39852 6.86193 9.13817C6.60158 8.87782 6.60158 8.45571 6.86193 8.19536L11.724 3.33333H8.66677Z" fill="#FFFFFF"/>
</svg>
