<svg width="24" height="24" viewBox="0 0 24 24" fill="none" xmlns="http://www.w3.org/2000/svg">
<path d="M15.2929 6.29289C14.9024 6.68342 14.9024 7.31658 15.2929 7.70711L18.5858 11L9 11C8.44771 11 8 11.4477 8 12C8 12.5523 8.44771 13 9 13L18.5858 13L15.2929 16.2929C14.9024 16.6834 14.9024 17.3166 15.2929 17.7071C15.6834 18.0976 16.3166 18.0976 16.7071 17.7071L21.7071 12.7071C21.803 12.6112 21.8753 12.5007 21.9241 12.3828C21.973 12.2649 22 12.1356 22 12C22 11.7441 21.9024 11.4882 21.7071 11.2929L16.7071 6.29289C16.3166 5.90237 15.6834 5.90237 15.2929 6.29289Z" fill="#FF2020"/>
<path d="M8 6C8.55229 6 9 5.55228 9 5C9 4.44772 8.55229 4 8 4L5 4C3.34315 4 2 5.34315 2 7L2 17C2 18.6569 3.34315 20 5 20L8 20C8.55229 20 9 19.5523 9 19C9 18.4477 8.55229 18 8 18L5 18C4.44772 18 4 17.5523 4 17L4 7C4 6.44772 4.44772 6 5 6L8 6Z" fill="#FF2020"/>
</svg>
